<?xml version="1.0" encoding="UTF-8" standalone="no"?>
<svg
   xmlns:dc="http://purl.org/dc/elements/1.1/"
   xmlns:cc="http://creativecommons.org/ns#"
   xmlns:rdf="http://www.w3.org/1999/02/22-rdf-syntax-ns#"
   xmlns:svg="http://www.w3.org/2000/svg"
   xmlns="http://www.w3.org/2000/svg"
   xmlns:sodipodi="http://sodipodi.sourceforge.net/DTD/sodipodi-0.dtd"
   xmlns:inkscape="http://www.inkscape.org/namespaces/inkscape"
   width="882.74982"
   height="812.17975"
   viewBox="0 0 882.74982 812.17975"
   id="svg2"
   version="1.1"
   inkscape:version="0.48.1 "
   sodipodi:docname="ZZ1.svg">
  <metadata
     id="metadata20">
    <rdf:RDF>
      <cc:Work
         rdf:about="">
        <dc:format>image/svg+xml</dc:format>
        <dc:type
           rdf:resource="http://purl.org/dc/dcmitype/StillImage" />
      </cc:Work>
    </rdf:RDF>
  </metadata>
  <defs
     id="defs18" />
  <sodipodi:namedview
     pagecolor="#ffffff"
     bordercolor="#666666"
     borderopacity="1"
     objecttolerance="10"
     gridtolerance="10"
     guidetolerance="10"
     inkscape:pageopacity="0"
     inkscape:pageshadow="2"
     inkscape:window-width="1280"
     inkscape:window-height="1004"
     id="namedview16"
     showgrid="false"
     fit-margin-top="0"
     fit-margin-left="0"
     fit-margin-right="0"
     fit-margin-bottom="0"
     inkscape:zoom="0.5"
     inkscape:cx="924.39833"
     inkscape:cy="94.689677"
     inkscape:window-x="-8"
     inkscape:window-y="-8"
     inkscape:window-maximized="1"
     inkscape:current-layer="svg2" />
  <path
     style="fill:#e40303"
     d="M 23.9688,0.01958224 C 22.0559,0.24022224 20.6549,1.7997722 20.1875,5.4883322 18.0243,22.453802 13.2211,15.980682 0,20.800832 c 3.0009,4.1904 9.6025,13.71654 6.625,19.3125 -2.6434,4.99353 4.5346,7.26777 5.375,11.1875 1.9011,8.87741 -2.0451,24.18919 8.5938,27.90625 -5.6404,4.77324 -9.4863,14.81125 -11,21.437498 -1.0108,4.42825 9.1114,6.79072 11.6874,8.15625 8.297,4.3771 1.7156,13.23995 5.1563,20.09375 2.2504,4.49135 5.7326,4.2095 7.4063,6.46875 l 250.6562,0 c -1.79509,-2.61628 -3.9161,-4.89223 -7.03125,-6.3125 -12.7383,-5.78917 -29.30195,-2.35626 -41.71875,-9.40625 -14.6288,-8.27574 -9.98995,-32.052868 -14.90625,-46.437498 -0.4927,-1.4429 -7.6657,-0.0548 -9.8125,-1.09375 -5.3145,-2.58802 -9.2943,-7.65574 -14.125,-10.9375 -6.8584,-4.65712 -23.71965,-14.96509 -5.40625,-19.09375 9.8768,-2.22371 -11.1639,-16.43351 6.9375,-22.96875 -6.4366,-9.3270498 -15.9446,-22.7119898 -30.125,-13.8124998 -5.4252,3.40979 -9.9876,8.0521598 -15.0625,11.9374998 -4.378,3.35167 -11.6178,4.49597 -14.25,9.625 -2.279,4.44902 -20.28045,18.38108 -25.21875,19.8125 -8.95145,2.59883 -21.29915,1.73986 -29.90625,0.4375 -13.8968,-2.10239 -17.4968,-7.09863 -26.125,-16.03125 -4.2172,-4.36364 -9.2615,-7.86171 -13.5,-12.21875 -4.3892,-4.51103 -6.4374,-11.0384798 -11.5,-14.9062498 -2.6962,-2.04906 -5.5729,-3.77683996 -7.9062,-3.93749996 -0.2917,-0.0201000036 -0.6018,-0.0315 -0.875,0 z M 583.09375,78.425832 c -2.45395,0.10156 -4.33345,2.48994 -7.3125,1.65625 -5.49197,-1.5476 -15.54361,1.9029 -12.375,9.28125 -13.58182,2.93741 -24.83308,-4.58706 -38.75,0.4375 -9.5578,3.4483 -22.90255,11.653088 -29.65625,19.906248 -6.7877,8.30502 0.57125,12.33042 -12.40625,16 -10.9055,3.08219 -19.6553,5.63541 -30.5625,5.21875 0.14255,1.1758 0.51387,2.7391 0.96875,4.4375 l 254.59375,0 c -0.56553,-0.71823 -1.03626,-1.51823 -1.4375,-2.40625 -4.1451,-9.15402 -5.64363,-13.55792 -15.71875,-17.5625 -10.23179,-4.06177 -19.56119,-2.10908 -30.6875,-2.9375 -9.98828,-0.74512 -14.12784,-9.5711 -23.4375,-11.25 -8.3518,-1.516978 -23.28266,-1.800678 -26.34375,-10.406248 -3.21964,-9.04355 -4.13169,-11.44063 -14.46875,-8.96875 -4.41067,1.06016 -6.6109,-0.46517 -9.6875,-2.53125 -1.00198,-0.67324 -1.90077,-0.90885 -2.71875,-0.875 z"
     id="rect4"
     inkscape:connector-curvature="0" />
  <path
     style="fill:#ff8c00"
     d="m 33.8438,135.36333 c 0.8323,1.12363 1.2287,2.87072 0.7812,6.15625 -0.3886,2.82992 4.6717,23.35054 6.125,24 5.652,2.50848 5.8555,4.76321 4.4688,11.15625 -2.3747,10.96964 23.3279,15.52895 14.3124,31.96875 10.5409,-2.41504 11.0216,3.94375 18.25,8.25 4.7728,2.8496 10.7913,0.26277 16.125,-0.3125 4.3856,-0.47257 7.1567,2.86369 11.75,1.53125 -2.6944,7.60832 -12.7779,5.90906 -15.4374,12.78125 -3.0844,7.95931 4.4777,13.66382 7.1562,19.625 1.6046,3.54704 1.5913,9.15125 -4.5,9.15625 -6.4719,0.001 -6.4974,-2.22297 -8.2812,5.625 -0.6697,2.94378 -3.3046,3.92045 -5.5626,5.40625 l 700.00005,0 c 2.19258,-7.43505 2.35486,-16.0154 2.40625,-21.46875 0.0699,-7.94065 7.65475,-13.08536 8.09375,-20.53125 0.2845,-4.72718 -0.71,-18.08728 -3.75,-21.21875 -4.9246,-5.06287 0.4348,-3.77278 0.5625,-11.28125 0.0724,-4.13196 -2.431,-6.98614 -2.5,-10.96875 -0.0389,-2.38185 2.8332,-17.3347 -0.75,-17.3125 -9.7258,0.0601 -27.3752,3.57448 -35.5,-0.6875 -7.3762,-3.89219 -9.2841,-14.98373 -15.8125,-20.0625 -6.66201,-5.18017 -18.81675,-4.99154 -24.1875,-11.8125 l -254.59375,0 c 1.94834,7.27456 5.80673,18.15021 3.625,23.09375 -14.9852,4.85533 -36.5948,-9.69163 -79.1875,11.875 -19.2506,5.70314 -41.5354,0.46529 -57.5625,-7.15625 -8.4953,-4.05311 -19.63985,-8.41631 -26.46875,-14.6875 -3.89584,-3.56913 -5.93586,-8.79574 -8.90625,-13.125 l -250.6562,0 z"
     id="rect6"
     inkscape:connector-curvature="0" />
  <path
     style="fill:#ffed00"
     d="m 79.0312,270.70708 c -1.8675,1.22889 -3.4733,2.81168 -3.5312,6.09375 -0.085,4.19012 1.4387,8.00793 1.6875,12.125 -3.4465,-0.005 -6.5389,-0.8957 -9.25,-2.71875 -1.2981,4.42358 -5.5901,9.86545 -1.4375,13.5 4.2257,3.65347 5.0997,6.45709 2.4688,12.21875 -2.882,6.32483 -8.0408,7.52032 -3.0626,12.53125 3.3528,3.38126 6.2693,7.26676 9.7188,10.53125 4.7135,4.45737 33.99326,30.03609 17.3125,35.1875 7.0881,2.86755 0.4757,8.72765 10.6563,7.8125 6.08051,-0.55409 11.1612,3.60875 15.5312,6.90625 8.0035,6.04444 13.9646,17.95506 24.625,20 1.7902,0.34386 3.28356,0.72513 4.59375,1.1875 l 621.1875,0 c -3.96565,-13.26024 -15.50244,-31.5383 -9.09375,-44.1875 3.953,-7.77749 20.0463,-20.52307 4.75,-21.5 -11.9195,-0.75898 -14.326,-24.47476 -9.625,-34.59375 2.6233,-5.63897 12.5011,-7.00968 13.9375,-11.34375 0.9412,-2.71066 -3.688,-7.25436 -4.75,-9.28125 8.01038,-0.95837 12.12611,-7.16064 14.28125,-14.46875 l -700.00005,0 z"
     id="rect8"
     inkscape:connector-curvature="0" />
  <path
     style="fill:#008026"
     d="m 148.34375,406.08208 c 8.91264,3.14534 8.02719,9.10288 14.6875,18.5 7.5025,10.59866 14.49735,13.35222 9.96875,28.53125 -3.3932,11.42137 -10.86305,34.46773 5.46875,33.84375 10.3812,-0.39348 5.47175,14.59906 5.65625,22.125 0.2999,11.83746 13.2721,12.54325 15.9375,22.09375 0.93634,3.34889 0.95512,7.42727 2.71875,10.28125 l 6.53125,0 c 22.96087,-17.62689 9.95354,-28.16354 28.78125,-11.53125 2.4555,6.53066 10.1798,1.56683 14.1875,8.46875 5.9558,10.29833 22.3316,-20.06569 26.875,-2.8125 0.53393,2.03541 1.12594,3.98116 1.8125,5.875 l 494.53125,0 c 4.11458,-7.31691 13.17429,-15.67097 17.4375,-21.03125 6.5577,-8.23257 15.05345,-16.88683 19.21875,-26.53125 4.055,-9.3791 8.17935,-26.41685 -1.71875,-31.875 -9.4823,-5.21544 -29.30345,1.44705 -36.40625,-7.0625 -9.3847,-11.21963 -1.37055,-30.50394 -3.40625,-44.3125 -0.21238,-1.42926 -0.61727,-2.96926 -1.09375,-4.5625 l -621.1875,0 z"
     id="rect10"
     inkscape:connector-curvature="0" />
  <path
     style="fill:#004dff"
     d="m 202.78125,541.45708 c 0.6731,1.08924 1.61499,2.00193 2.9375,2.625 1.30346,-0.89389 2.47058,-1.76275 3.59375,-2.625 l -6.53125,0 z m 78.1875,0 c 2.71133,7.47907 6.64423,13.95509 11.875,20.09375 3.885,4.5658 16.9319,14.06141 11.25,22.84375 -4.3434,6.7923 4.8627,5.98894 8.4375,6.8125 5.3577,1.23209 5.796,7.94724 -1.5,7.25 -0.5938,6.50433 5.62485,8.33431 9.34375,11.6875 5.4508,4.9176 2.13045,13.33075 5.28125,19.4375 6.6489,12.92144 8.7447,21.40913 19.75,30.65625 4.9735,4.18465 13.87575,1.45624 20.15625,3.03125 4.4712,1.12139 7.9421,5.12247 12.0625,7.15625 2.17026,1.0666 7.77299,3.36479 12.0625,6.375 l 470.84375,0 c 0.0146,-0.31738 0.0133,-0.57521 0.0312,-0.90625 0.4204,-7.71691 2.2433,-38.05229 -6.0625,-38.5625 -5.9657,-0.36979 -10.67185,-8.2387 -15.65625,-10.90625 -5.3194,-2.83975 -11.1265,-4.79315 -16.5625,-7.40625 -15.9837,-7.67991 -19.922,-25.06544 -27.9375,-40.03125 -3.8811,-7.43206 -8.21475,-14.89473 -13.90625,-20.84375 -2.782,-2.91354 -7.91865,-6.73521 -6.84375,-11.90625 0.31283,-1.50793 0.97133,-3.1187 1.90625,-4.78125 l -494.53125,0 z"
     id="rect12"
     inkscape:connector-curvature="0" />
  <path
     style="fill:#750787"
     d="m 389.6875,676.80083 c 4.684,3.28705 7.7957,7.42496 3,11.78125 8.279,4.04151 15.87575,9.22734 23.71875,13.96875 6.0071,3.64245 15.1854,5.71434 18.75,12.21875 7.2238,13.02763 15.04005,10.17805 28.65625,10.09375 11.0752,-0.0686 20.33765,16.19464 32.21875,10.15625 7.0547,-3.58126 10.7788,-12.25434 18.9375,-14.3125 1.1037,-0.27795 16.86049,1.75965 15.09375,-3 -2.76065,-7.43253 5.19247,-8.75784 11.53125,-10.65625 7.60342,-2.27421 13.98542,-9.1619 21.9375,-9.84375 17.44737,-1.48946 32.22712,8.54107 33.375,26.90625 1.36427,14.6003 2.77074,38.14875 12.8125,48.71875 15.39642,8.10649 22.76405,5.46226 34.25,14.59375 5.88378,2.61033 11.55468,-2.61159 17.46875,-0.9375 7.4267,2.09725 13.48824,-1.12556 20.09375,4.0625 4.94526,3.88785 9.54312,7.80707 16.53125,5.5625 8.28499,-2.65282 22.35655,-3.63853 29.09375,2.375 1.7506,1.57076 24.2268,2.15631 26.25,1.75 -4.0428,-4.16459 6.4737,-9.65167 7.375,-0.59375 0.6449,6.56123 11.03605,5.49915 15.40625,6.9375 2.55688,0.83995 13.93009,5.75616 20.78125,5.59375 3.5887,-0.0851 5.94904,-1.57216 5.125,-5.75 7.1274,2.75757 6.66375,-7.45548 6.59375,-11.8125 -0.1744,-10.39869 2.3081,-16.89255 5.5,-26.34375 2.3128,-6.83775 -1.5882,-17.02092 6.375,-21.34375 3.9662,-2.15484 11.46755,-5.86244 15.84375,-4.84375 -5.7982,-20.83465 40.43255,-8.40632 42.90625,-23.84375 1.4431,-7.63931 6.8102,-22.55776 0.25,-24.53125 -13.89685,-4.17383 -19.98345,3.79561 -19.03125,-16.90625 l -470.84375,0 z"
     id="rect14"
     inkscape:connector-curvature="0" />
</svg>
